<svg xmlns="http://www.w3.org/2000/svg" xmlns:xlink="http://www.w3.org/1999/xlink" version="1.1" x="0px" y="0px" viewBox="0 0 64 64" style="enable-background:new 0 0 64 64;max-width:100%" xml:space="preserve" height="100%"><g style="" fill="red"><path d="M60,55h-3V24.558C57.573,24.842,58.203,25,58.845,25C61.136,25,63,23.136,63,20.808c0-1.469-0.787-2.842-2.054-3.584   L33.271,1h-2.548L20,7.434V8h-0.259L10,13.412V14H9.713L1,19.446V26h2.257L5,25.039V55H4c-1.654,0-3,1.346-3,3v2   c0,1.654,1.346,3,3,3h56c1.654,0,3-1.346,3-3v-2C63,56.346,61.654,55,60,55z M33,55V10.731l22,12.692V55H33z M7,25h24v12H16v2h2v4   h-6v-4h2v-2H7V25z M31,10.694V23H8.695L31,10.694z M24,49v-4h7v4H24z M16,49v-4h6v4H16z M26,39v4h-6v-4H26z M31,43h-3v-4h3V43z    M7,39h3v4H7V39z M7,45h7v4H7V45z M18,51v4h-6v-4H18z M20,51h6v4h-6V51z M28,51h3v4h-3V51z M59.935,18.949   C60.592,19.333,61,20.046,61,20.845C61,22.033,60.033,23,58.845,23c-0.377,0-0.75-0.1-1.077-0.289L33,8.423V3.159L59.935,18.949z    M31,3.166V8.41l-9,4.965V8.566L31,3.166z M20,10.144v4.335l-8,4.414v-4.304L20,10.144z M3,23.858v-3.304l7-4.375v3.817L3,23.858z    M7,51h3v4H7V51z M61,60c0,0.551-0.449,1-1,1H4c-0.551,0-1-0.449-1-1v-2c0-0.551,0.449-1,1-1h56c0.551,0,1,0.449,1,1V60z" style="" fill="currentColor"></path><path d="M35,29v16h18V29H35z M51,36h-6v-5h6V36z M43,31v5h-6v-5H43z M37,38h6v5h-6V38z M45,43v-5h6v5H45z" style=""  fill="red"></path></g></svg>